<svg id="marklogic-logo" class="marklogic-logo" data-name="MarkLogic" xmlns="http://www.w3.org/2000/svg" viewBox="0 0 469.06 94.56">
  <defs>
    <style>
      .mark { fill:#231f20; }
      .logic, 
      .chiclets { fill:#ca3639; }
    </style>
  </defs>
  <g class="logo">
    <g class="chiclets">
      <path class="chiclet" d="M34.94,63.25a5,5,0,0,0,5-5V32.82a5,5,0,0,0-5-5H9.44a5,5,0,0,0-5,5V58.23a5,5,0,0,0,5,5Z" transform="translate(-4.43 -3.91)"/>
      <path class="chiclet" d="M58.16,24.38a4,4,0,0,0,4-4V7.88a4,4,0,0,0-4-4H45.68a4,4,0,0,0-4,4V20.4a4,4,0,0,0,4,4Z" transform="translate(-4.43 -3.91)"/>
    </g> 
    <g class="mark">
      <path class="name" d="M139.58,79.42H113.67V75.91a13.37,13.37,0,0,0,4.92-.67,3.45,3.45,0,0,0,2-1.95,10.22,10.22,0,0,0,.48-3.48V37.42l-19.51,42H99.27l-19.78-42V68.18a30.1,30.1,0,0,0,.17,3.74,4.49,4.49,0,0,0,.87,2.2,4.13,4.13,0,0,0,2.23,1.35,15.84,15.84,0,0,0,4.23.44v3.51H67.87V75.91a15.39,15.39,0,0,0,4.25-.46,4.14,4.14,0,0,0,2.19-1.37,4.44,4.44,0,0,0,.84-2.19,34.15,34.15,0,0,0,.15-3.71V38.91A22.87,22.87,0,0,0,75,34.19,3.24,3.24,0,0,0,73.07,32a13,13,0,0,0-5.2-.74v-3.5h18.9l17.15,36.46L121.1,27.75h18.48v3.5q-4.76,0-6.15,1.38c-.93.93-1.39,2.5-1.39,4.71V69.81a10.34,10.34,0,0,0,.46,3.39,3.5,3.5,0,0,0,2.11,2,13.36,13.36,0,0,0,5,.7Z" transform="translate(-4.43 -3.91)"/>
      <path class="name" d="M182.55,71.38a9.69,9.69,0,0,1-1.18,4.94,7.36,7.36,0,0,1-3.18,3,10.22,10.22,0,0,1-4.51,1,9,9,0,0,1-5.34-1.5,5.8,5.8,0,0,1-2.55-3.6q-6.36,5.11-12.8,5.11a10.8,10.8,0,0,1-6.75-2A6.3,6.3,0,0,1,143.62,73a8.82,8.82,0,0,1,1.41-4.9,13,13,0,0,1,4.13-3.91,32,32,0,0,1,6.5-3q3.77-1.31,9.41-2.76V56.25A6.49,6.49,0,0,0,163.79,52q-1.28-1.53-4.71-1.54a6.06,6.06,0,0,0-4.23,1.22,6.38,6.38,0,0,0-1.72,3.7A6.8,6.8,0,0,1,152,58.25c-.55.75-1.68,1.12-3.41,1.12a4.57,4.57,0,0,1-2.82-.92,3.16,3.16,0,0,1-1.22-2.7q0-3.55,3.85-6.17T160.23,47q8.38,0,11.52,2.82a9.63,9.63,0,0,1,3.14,7.54v12c0,1.53,0,2.64.11,3.35a2.78,2.78,0,0,0,.63,1.63,2.23,2.23,0,0,0,3.35-.48,4.12,4.12,0,0,0,.74-2.48Zm-17.49.31V62.23q-7.24,2.29-9.2,4.48a6.54,6.54,0,0,0-2,4.29A3.8,3.8,0,0,0,155,73.81a4.06,4.06,0,0,0,3,1.07,7.64,7.64,0,0,0,3.7-.87A23.7,23.7,0,0,0,165.07,71.68Z" transform="translate(-4.43 -3.91)"/>
      <path class="name" d="M218.45,53a4.58,4.58,0,0,1-1.35,3.49,4.47,4.47,0,0,1-3.18,1.28,4.73,4.73,0,0,1-3.81-2.14,10.56,10.56,0,0,0-1.26-1.37,2.13,2.13,0,0,0-1.41-.42q-3,0-4.63,3.22a14.43,14.43,0,0,0-1.66,6.69v6.63c0,2.13.27,3.6.82,4.38s2,1.18,4.33,1.18h2v3.51H184.65V75.91h2q3.2,0,3.93-1.22a9.16,9.16,0,0,0,.72-4.34V59.22a9.41,9.41,0,0,0-.51-3.66,2.69,2.69,0,0,0-1.85-1.47,18,18,0,0,0-4.27-.36v-3.5L199.51,47a50.77,50.77,0,0,1,1.07,8.27,16.35,16.35,0,0,1,2.8-4.12,14.77,14.77,0,0,1,3.88-3,9.36,9.36,0,0,1,4.4-1.14,6.86,6.86,0,0,1,5,1.75A5.69,5.69,0,0,1,218.45,53Z" transform="translate(-4.43 -3.91)"/>
      <path class="name" d="M261.74,79.42h-18.9V75.91q3.35,0,3.35-1.33a3.16,3.16,0,0,0-.84-2l-6.93-9.14-4,2.74V71a9,9,0,0,0,.46,3.34,2.16,2.16,0,0,0,1.29,1.31,9.57,9.57,0,0,0,2.63.27v3.51H219.07V75.91a10.24,10.24,0,0,0,3.43-.44,2.68,2.68,0,0,0,1.64-1.58,10.1,10.1,0,0,0,.46-3.54V37.88a5.54,5.54,0,0,0-.51-2.73A2.47,2.47,0,0,0,222.5,34a18.25,18.25,0,0,0-3.43-.34v-3.5l15.36-3.35V61.93l10.7-7.32a12.79,12.79,0,0,0,1.35-1.1,1.08,1.08,0,0,0,.28-.77q0-1-1.79-1h-2.13V48.21H259v3.51a19,19,0,0,0-8.65,3.58L246.46,58l10.21,13.79a27.44,27.44,0,0,0,2.69,3.07,3.44,3.44,0,0,0,2.38,1Z" transform="translate(-4.43 -3.91)"/>
    </g>
    <g class="logic">
      <path class="chiclet" d="M353.4,63.72a15.9,15.9,0,0,1-9.31,14.92,21.59,21.59,0,0,1-9.39,2,22.55,22.55,0,0,1-9.09-1.86,16.68,16.68,0,0,1-7-5.68,15.66,15.66,0,0,1-2.72-9.34q0-8.26,5.64-12.55A21.51,21.51,0,0,1,334.92,47a20.6,20.6,0,0,1,10,2.29,15.64,15.64,0,0,1,6.34,6.13A16.84,16.84,0,0,1,353.4,63.72Zm-10.51-.23q0-6.47-1.71-9.76t-6.67-3.28a7.62,7.62,0,0,0-4.93,1.43,7.72,7.72,0,0,0-2.48,4.42,34.81,34.81,0,0,0-.7,7.75A24.18,24.18,0,0,0,328,73.55q1.56,3.62,6.82,3.62a6.76,6.76,0,0,0,5.28-2,9.67,9.67,0,0,0,2.32-5A39.16,39.16,0,0,0,342.89,63.49Z" transform="translate(-4.43 -3.91)"/>
      <path class="chiclet" d="M396.42,50.31a3.22,3.22,0,0,1-.74,2.21,2.23,2.23,0,0,1-1.7.84,3.74,3.74,0,0,1-2.4-1,5.87,5.87,0,0,1-.63-.47,6.17,6.17,0,0,0-.76-.55,1.28,1.28,0,0,0-.63-.19,2.55,2.55,0,0,0-1.87.77,17,17,0,0,1,2,3.1,8.71,8.71,0,0,1,.7,3.75A8.89,8.89,0,0,1,389,63.85,9.25,9.25,0,0,1,385.35,67a19.65,19.65,0,0,1-4.61,1.6q-2.35.5-6,1-9,1.1-9,3.66c0,.74.45,1.24,1.36,1.52a14.27,14.27,0,0,0,4,.42h5.79a48.69,48.69,0,0,1,5.33.29,20.83,20.83,0,0,1,5.2,1.32A11,11,0,0,1,392,80.1a9.26,9.26,0,0,1,1.87,6,10.79,10.79,0,0,1-1.7,5.6,12.93,12.93,0,0,1-6,4.78q-4.35,2-11.7,2A43.83,43.83,0,0,1,363,96.95q-5.66-1.53-5.66-6.82a5.58,5.58,0,0,1,1.09-3.34,3.79,3.79,0,0,1,3.29-1.5,5.3,5.3,0,0,1,2.86.68,5.18,5.18,0,0,0-.84,2.82q0,2.48,2.91,4.33T375.42,95a21.16,21.16,0,0,0,9.31-1.7q3.41-1.69,3.41-4.48a3.33,3.33,0,0,0-1.47-3,9.16,9.16,0,0,0-4.19-1.28q-2.72-.29-8.48-.36a34.53,34.53,0,0,1-11-1.52q-4-1.45-4-6.13a6.22,6.22,0,0,1,3-5.75A24.39,24.39,0,0,1,369.32,68q-10.2-1.93-10.21-9.6a11.16,11.16,0,0,1,1.35-5.1,11,11,0,0,1,4.84-4.49A19.84,19.84,0,0,1,374.66,47q7.5,0,11.54,3.51A7.23,7.23,0,0,1,392.34,47a4.35,4.35,0,0,1,3,1A3,3,0,0,1,396.42,50.31Zm-15.63,8a10.73,10.73,0,0,0-1.45-5.64,4.91,4.91,0,0,0-4.53-2.4q-3.35,0-4.73,2.23a10,10,0,0,0-1.37,5.35A12.83,12.83,0,0,0,370,63.54c.85,1.74,2.46,2.62,4.82,2.62a5.29,5.29,0,0,0,4.32-2A9.05,9.05,0,0,0,380.79,58.27Z" transform="translate(-4.43 -3.91)"/><path class="cls-2" d="M421.13,79.42H400.44V75.91h1.11a6.4,6.4,0,0,0,3.22-.62A2.54,2.54,0,0,0,406,73.58a17.24,17.24,0,0,0,.23-3.23V59a13.61,13.61,0,0,0-.29-3.35,2.21,2.21,0,0,0-1.49-1.44,12.94,12.94,0,0,0-4-.5v-3.5L416.07,47v23.4c0,2.13.27,3.6.8,4.38s2,1.18,4.26,1.18Zm-4.3-47.36a5.55,5.55,0,0,1-11.09,0,5.55,5.55,0,1,1,11.09,0Z" transform="translate(-4.43 -3.91)"/><path class="cls-2" d="M457.27,71.68q-4.61,9-14.82,9a21.47,21.47,0,0,1-9-1.94,16.51,16.51,0,0,1-6.82-5.64A14.75,14.75,0,0,1,424,64.44a16,16,0,0,1,1.39-6.56,17.93,17.93,0,0,1,4-5.64,18.67,18.67,0,0,1,6.23-3.9A21.32,21.32,0,0,1,443.4,47,19.77,19.77,0,0,1,452.66,49q4,2.08,4,5.73a3.78,3.78,0,0,1-1.26,2.86,4.11,4.11,0,0,1-2.9,1.18A3.48,3.48,0,0,1,449,56.59c-.18-.51-.43-1.41-.76-2.71a4.43,4.43,0,0,0-1.64-2.65,5.62,5.62,0,0,0-3.2-.78A8.65,8.65,0,0,0,437.25,53q-2.69,2.57-2.68,9.62a21.26,21.26,0,0,0,1.08,6.93,10.54,10.54,0,0,0,3.43,5,9,9,0,0,0,5.73,1.84,8.14,8.14,0,0,0,5.76-1.86,21.31,21.31,0,0,0,3.51-4.38Z" transform="translate(-4.43 -3.91)"/><path class="cls-2" d="M291.48,75.18a38.31,38.31,0,0,0,7.29-.66,11.76,11.76,0,0,0,6.1-3.54q2.79-2.88,3.49-8.82h3.51l-.34,17.26h-45V75.91c3.17,0,5.22-.46,6.13-1.37s1.38-2.49,1.38-4.73V37.35a10.41,10.41,0,0,0-.46-3.48,3.48,3.48,0,0,0-2.12-1.92,13.56,13.56,0,0,0-4.93-.69v-3.5h26v3.5a14.18,14.18,0,0,0-4.9.65,3.59,3.59,0,0,0-2.17,1.88,9.79,9.79,0,0,0-.51,3.57V67.07a25.58,25.58,0,0,0,.34,5,3.34,3.34,0,0,0,1.87,2.31,10.39,10.39,0,0,0,4.21.77Z" transform="translate(-4.43 -3.91)"/>
      <path class="chiclet" d="M463.55,51.95a5,5,0,0,1,.38-2,4.75,4.75,0,0,1,2.63-2.6,5.31,5.31,0,0,1,3.92,0,4.75,4.75,0,0,1,2.63,2.6,5.31,5.31,0,0,1,0,4,4.75,4.75,0,0,1-2.63,2.6,5.31,5.31,0,0,1-3.92,0,4.75,4.75,0,0,1-2.63-2.6A5,5,0,0,1,463.55,51.95Zm1.08,0a4.39,4.39,0,0,0,.28,1.56,3.68,3.68,0,0,0,2,2.12,4.24,4.24,0,0,0,3.2,0,3.67,3.67,0,0,0,2-2.12,4.55,4.55,0,0,0,0-3.13,3.67,3.67,0,0,0-2-2.12,4.24,4.24,0,0,0-3.2,0,3.68,3.68,0,0,0-2,2.12A4.39,4.39,0,0,0,464.63,51.95Zm4.62.45,1.39,2.06h-1.17l-1.24-1.95h-.52v1.95h-1V49.38h1.75a3.81,3.81,0,0,1,.77.08,1.92,1.92,0,0,1,.66.26,1.43,1.43,0,0,1,.46.48,1.39,1.39,0,0,1,.17.72,1.35,1.35,0,0,1-.34,1,1.68,1.68,0,0,1-.93.47Zm-1.54-2.15v1.39h.56a1.82,1.82,0,0,0,.89-.17.59.59,0,0,0,.29-.56.62.62,0,0,0-.2-.48,1.06,1.06,0,0,0-.71-.18Z" transform="translate(-4.43 -3.91)"/>
    </g>
  </g>
</svg>